<svg width="32" height="32" viewBox="0 0 32 32" fill="none" xmlns="http://www.w3.org/2000/svg">
  <!-- Background circle with wedding theme color -->
  <circle cx="16" cy="16" r="15" fill="#616d45" stroke="#d4b694" stroke-width="2"/>
  
  <!-- Wedding rings interlinked -->
  <g transform="translate(16, 16)">
    <!-- First ring -->
    <circle cx="-3" cy="-1" r="4" fill="none" stroke="#d4b694" stroke-width="1.5"/>
    <!-- Second ring -->
    <circle cx="3" cy="1" r="4" fill="none" stroke="#d4b694" stroke-width="1.5"/>
    
    <!-- Small decorative hearts -->
    <path d="M-6,-6 C-6.5,-6.5 -7.5,-6.5 -8,-6 C-8.5,-5.5 -8.5,-4.5 -8,-4 L-6,-2 L-4,-4 C-3.5,-4.5 -3.5,-5.5 -4,-6 C-4.5,-6.5 -5.5,-6.5 -6,-6 Z" fill="#d4b694"/>
    <path d="M6,6 C6.5,5.5 7.5,5.5 8,6 C8.5,6.5 8.5,7.5 8,8 L6,10 L4,8 C3.5,7.5 3.5,6.5 4,6 C4.5,5.5 5.5,5.5 6,6 Z" fill="#d4b694"/>
  </g>
  
  <!-- Decorative flourish at bottom -->
  <path d="M16,26 Q14,24 12,26 Q16,28 20,26 Q18,24 16,26" fill="#d4b694" opacity="0.7"/>
</svg>