<svg width="222" height="196" viewBox="0 0 222 196" fill="none" xmlns="http://www.w3.org/2000/svg">
<path d="M83.5373 81.464C72.0173 78.968 70.6093 63.16 70.6093 53.24C70.6093 48.312 70.9933 43.512 71.6333 38.648C72.0813 35.64 72.4013 32.632 72.4013 29.688C72.4013 27.832 72.0813 25.592 70.1613 24.824L69.8413 24.696L69.7133 24.824C69.2013 25.336 63.6973 32.888 60.0493 37.944C55.3773 44.472 51.4733 50.104 46.0973 58.168C40.9133 65.976 38.8013 69.368 36.7533 73.208C36.3053 73.976 35.7933 74.872 35.6013 75.256C35.0893 76.088 34.6413 76.984 34.6413 77.112C34.6413 77.368 34.4493 77.56 34.2573 77.56C34.1293 77.56 34.0013 77.432 33.8733 77.368C33.8093 77.304 33.7453 77.112 33.7453 76.984C33.7453 75.704 38.0972 67.896 38.8013 66.68C41.2973 62.264 45.8413 55.032 51.9853 45.816C60.8813 32.376 70.4813 19.128 80.8493 6.712C81.2973 6.2 81.7453 5.752 82.0013 5.56C74.0653 9.848 65.4253 11.896 56.5933 13.368C43.9853 15.544 39.1213 16.824 34.7693 18.936C30.0973 21.24 24.4653 25.72 22.4813 30.648C22.4173 30.904 22.2893 31.096 22.2893 31.224L22.3533 31.288C22.3533 31.352 22.3533 31.416 22.3533 31.48C22.3533 31.8 22.0333 32.056 21.7133 32.12C21.6493 32.056 21.4573 32.056 21.3932 31.992C21.2653 31.864 21.1373 31.608 21.1373 31.288C21.1373 28.856 25.6173 24.184 27.3453 22.712C29.2013 21.176 31.6973 19.512 34.1293 18.36C38.6733 16.12 42.8333 15.096 55.8893 12.856C64.1453 11.448 72.8493 9.848 80.2733 5.88C82.3853 4.792 82.5773 4.6 84.5613 2.488C85.7133 1.272 86.1613 0.951996 86.7373 0.951996C87.3133 0.951996 87.7613 1.528 87.8253 2.104C87.8253 2.232 87.7613 2.488 87.6973 2.616C87.5693 3 87.1213 3.448 85.0732 5.816C80.2733 11.32 75.7293 17.016 71.2493 22.776L71.1213 22.904C70.9933 23.096 70.9293 23.224 70.9293 23.224L70.8013 23.096H70.8653C75.6013 22.904 85.5213 16.76 90.0653 13.816C100.945 6.584 107.409 3 111.761 1.784C113.105 1.4 114.385 1.208 115.345 1.208C116.113 1.208 118.993 1.912 118.993 2.936C118.993 3.064 118.929 3.128 118.801 3.128C118.737 3.128 118.545 3.064 118.353 2.936C117.777 2.36 117.073 2.168 116.113 2.168C113.745 2.168 110.289 3.64 105.425 6.712C103.825 7.672 102.033 8.824 98.0653 11.448C90.7693 16.248 81.1693 22.328 72.3373 23.928C71.8893 23.992 71.5693 24.056 71.5693 23.992C71.5693 23.992 71.6973 24.056 71.9533 24.184C74.5133 25.464 74.9613 28.728 74.9613 31.288C74.9613 33.4 74.8333 34.552 73.9373 40.44C73.1053 46.008 72.4653 51.512 72.4653 57.144C72.4653 64.76 73.4893 76.088 81.2333 80.056C82.4493 80.632 83.9853 81.016 85.1373 81.016C85.9053 81.016 87.8253 80.504 88.1453 79.864C88.2093 79.736 88.3372 79.672 88.4013 79.672C88.5293 79.672 88.5933 79.736 88.5933 79.928C88.5933 80.824 85.9053 81.592 85.0093 81.592C84.4973 81.592 83.9853 81.528 83.5373 81.464ZM123.241 40.568C123.369 40.376 123.561 40.312 123.689 40.312C123.817 40.312 123.945 40.376 123.945 40.568C123.945 40.76 123.561 41.336 122.729 42.04C117.289 46.456 108.393 53.432 101.097 53.432C97.7693 53.432 95.2093 51.448 95.1453 48.312V47.928C95.1453 42.68 101.801 34.936 106.921 34.936C107.497 34.936 107.945 35.192 108.265 35.512C108.393 35.64 108.521 35.96 108.521 36.216C108.521 36.408 108.393 36.728 108.329 36.92C107.881 37.624 106.473 38.84 104.809 39.864C103.849 40.44 103.017 40.888 100.201 42.232C99.5613 42.488 98.9213 42.872 98.7933 42.936C97.6413 44.088 96.4893 47.096 96.4893 48.632C96.4893 51.192 98.6653 52.472 101.353 52.472H101.609C108.457 52.408 115.241 47.032 120.361 43.256C121.769 42.168 122.921 40.888 123.241 40.568ZM100.201 41.144C100.073 41.336 99.8173 41.528 99.6892 41.528C100.713 41.528 107.433 37.496 107.433 36.472C105.449 36.472 101.417 39.8 100.201 41.144ZM150.801 40.696C151.121 40.44 151.377 40.248 151.505 40.248L151.569 40.312C151.569 40.504 149.841 42.168 148.753 42.872C146.129 44.728 142.353 46.84 139.089 46.84C136.529 46.84 134.737 45.368 134.737 42.616C134.737 42.36 134.737 42.104 134.801 42.104C134.801 42.104 134.417 42.488 133.969 42.872C133.521 43.32 131.793 44.792 130.129 46.136C123.153 52.152 120.401 54.84 118.737 57.4C118.225 58.168 118.033 58.36 117.841 58.36C117.585 58.36 117.393 58.168 117.393 57.912C117.393 57.656 117.585 57.144 117.969 56.056C118.929 53.304 119.505 51.448 120.529 48.12C121.553 44.984 122.129 43.128 122.577 42.04C123.345 40.184 125.585 35.448 125.841 35.128C126.097 34.744 126.417 34.552 126.929 34.552C127.633 34.552 128.145 35.064 128.145 35.768C128.145 36.024 128.081 36.28 127.953 36.536C127.825 36.728 127.313 37.624 126.801 38.456C124.625 42.104 122.897 45.752 121.489 49.72C120.913 51.448 120.209 53.112 119.569 54.776L119.185 55.672L118.993 55.544L119.185 55.352C121.745 52.536 124.561 50.104 127.505 47.672C130.129 45.496 133.969 42.168 134.545 41.656C134.673 41.528 134.801 41.336 134.801 41.272C134.801 38.328 138.769 32.824 141.585 32.824C141.777 32.824 142.033 32.888 142.097 32.952C142.289 33.08 142.481 33.4 142.481 33.656C142.481 33.72 142.417 33.912 142.417 33.976C142.161 34.808 141.201 35.96 138.129 38.968L136.273 40.824L136.145 41.4C136.017 41.72 136.017 42.232 136.017 42.872C136.017 44.92 137.041 45.88 139.217 46.008H139.601C143.057 46.008 148.369 42.872 150.801 40.696ZM141.777 33.976C140.561 34.104 136.593 39.224 136.593 39.992L136.529 39.864L136.593 39.928L136.529 39.864C136.849 39.864 141.585 34.424 141.649 33.912L141.777 33.976ZM158.134 31.288C157.878 31.032 157.878 30.968 157.878 30.584C157.878 29.688 158.454 28.216 159.478 28.216C160.054 28.216 160.566 28.6 160.63 29.176V29.304C160.63 30.072 159.542 31.544 158.774 31.608C158.582 31.544 158.326 31.48 158.134 31.288ZM192.438 50.808C198.262 50.808 204.086 45.432 207.862 41.464C208.246 41.08 208.63 40.632 209.078 40.376L209.27 40.568C209.334 40.824 207.222 43.128 206.966 43.384C203.382 47.032 197.43 51.64 192.182 51.64C183.414 51.64 181.942 39.544 179.51 39.544C176.694 39.544 171.254 50.488 169.526 50.488C168.95 50.488 168.886 49.784 168.886 49.336C168.886 46.84 176.694 39.16 176.694 35.256C176.694 35.128 176.63 35 176.63 34.872C176.438 34.744 176.118 34.552 175.862 34.552C169.654 34.552 154.486 56.184 148.79 56.184C146.934 56.184 146.486 54.2 146.486 52.728C146.486 49.848 150.326 39.864 153.654 37.24C155.19 36.024 157.238 36.664 155.638 38.648C153.59 41.144 147.446 47.864 147.446 53.24C147.446 54.136 147.702 55.288 148.854 55.288C154.294 55.288 169.27 33.528 176.246 33.528C177.398 33.528 177.974 34.424 177.974 35.512C177.974 36.344 176.502 40.696 175.798 40.824C176.694 39.928 178.294 38.072 179.638 38.072C183.798 38.072 183.734 50.808 192.438 50.808ZM97.685 113.304C89.877 122.648 82.837 132.44 77.013 143.128C75.861 145.304 74.389 148.12 74.453 148.12C74.517 148.312 76.373 149.4 77.397 149.912C80.085 151.192 82.837 151.96 85.781 151.96C89.813 151.96 92.565 151 95.957 148.76C96.789 148.248 97.493 147.864 97.557 147.928L97.621 147.992C97.621 148.12 97.429 148.248 96.469 148.952C93.269 151.32 89.621 152.536 85.589 152.536C81.685 152.536 77.717 151.128 74.453 148.952C74.325 148.824 74.133 148.76 74.133 148.76L74.197 148.696C74.133 148.824 73.237 150.68 72.661 152.088C70.165 157.784 67.925 164.888 67.925 171.224C67.925 177.816 70.869 184.92 78.613 184.92C83.349 184.92 87.957 182.104 91.477 179.224C92.885 178.008 95.253 175.896 95.253 175.768L95.317 175.448L95.509 175.704C95.573 175.832 95.381 176.088 95.189 176.344C90.901 180.632 84.565 185.496 78.357 185.496C69.909 185.496 66.709 177.688 66.709 170.392C66.709 163.096 69.589 154.456 72.469 147.864L72.597 147.608L71.765 147.032C69.909 145.56 68.117 143.768 64.981 140.44C61.781 137.048 60.245 135.384 60.181 135.384C60.053 135.448 55.125 139.096 52.629 141.016C41.173 149.848 20.885 168.472 18.325 182.872C18.197 183.576 18.069 183.832 17.941 183.96C17.877 184.024 17.685 184.152 17.621 184.152C17.301 184.152 17.045 183.768 17.045 183.256C17.045 181.528 18.389 177.752 20.181 174.552C28.245 159.896 44.693 145.88 58.005 136.152C58.901 135.512 59.669 134.936 59.733 134.872L59.669 134.936C59.669 134.808 59.285 134.424 58.517 133.656C52.757 128.088 46.869 125.336 38.805 125.336C29.781 125.336 20.309 130.328 14.869 137.368C13.589 138.968 12.757 140.376 12.757 140.952C12.757 141.144 12.693 141.4 12.629 141.528C12.629 141.656 12.565 141.784 12.565 141.912C12.565 142.168 12.309 142.488 12.053 142.488C11.733 142.488 11.477 142.104 11.477 141.848C11.477 138.84 17.621 133.272 19.925 131.48C25.365 127.448 32.277 124.76 39.125 124.76C47.253 124.76 54.229 128.024 59.797 133.912L59.989 134.104C60.181 134.296 60.309 134.424 60.373 134.424C60.437 134.424 60.565 134.296 60.757 134.168L60.885 134.04C61.589 133.592 67.861 129.176 69.525 128.024C76.885 123.032 84.181 117.848 91.413 112.6C93.589 111 96.021 109.272 98.901 107.224C99.477 106.84 100.053 106.392 100.053 106.328C100.117 106.136 100.757 105.88 101.141 105.88C101.717 105.88 102.101 106.264 102.101 106.968C102.101 107.928 101.781 108.376 97.685 113.304ZM73.365 145.816C79.317 133.144 87.637 121.56 96.533 110.744C99.157 107.544 99.349 107.352 99.413 107.352C99.413 107.416 99.029 107.672 97.109 109.08C94.933 110.744 91.541 113.176 87.957 115.736C87.253 116.248 86.549 116.76 86.037 117.144L85.269 117.656C82.005 120.024 77.269 123.416 70.997 127.704C68.309 129.56 67.733 130.008 64.597 132.248C62.165 133.976 60.757 134.936 60.757 134.936C60.757 134.936 61.525 135.704 62.421 136.664L62.869 137.176C63.829 138.136 65.109 139.544 65.941 140.44C68.053 142.68 70.165 144.856 72.533 146.712C72.661 146.84 72.789 146.904 72.853 146.968C72.853 146.904 73.109 146.392 73.365 145.816ZM137.328 109.144C138.16 109.144 138.928 109.528 138.928 110.424V110.552C138.928 115.608 115.376 132.888 110.512 136.28C106.096 139.352 105.904 139.544 105.2 140.44C100.144 146.776 90.1595 160.92 90.1595 169.496C90.1595 172.312 91.2475 174.04 93.1675 174.04C95.6635 174.04 99.5675 171.096 101.36 169.496C103.28 167.832 107.76 163.416 111.28 159.704C112.496 158.488 122.544 148.312 123.504 148.312C123.632 148.312 123.696 148.376 123.696 148.504C123.696 148.632 123.632 148.76 123.44 148.888C123.12 149.08 122.224 149.912 119.28 152.536C117.424 154.2 114.096 157.528 111.856 159.896C105.904 166.296 104.432 167.768 102.576 169.496C100.272 171.544 96.3035 175 92.9115 175C89.7755 175 88.8795 171.544 88.8795 168.92C88.8795 153.816 108.912 130.776 119.664 120.92C122.928 117.976 132.976 109.144 137.328 109.144ZM124.976 124.568C127.408 122.584 137.648 113.432 137.648 110.808L137.584 110.68H137.52C135.28 110.872 130.352 114.648 128.624 115.992C122.416 121.048 114.096 129.496 107.632 137.368C107.376 137.688 107.184 137.88 107.184 137.944L107.056 137.816C107.12 137.816 107.44 137.56 108.08 137.112C108.528 136.792 110.256 135.576 111.856 134.424C117.616 130.456 121.136 127.832 124.976 124.568ZM118.519 159.768C118.519 155.288 121.719 150.168 124.279 146.712C124.919 145.816 127.159 143 128.439 143C129.079 143 129.591 143.576 129.591 144.216C129.591 144.408 129.463 144.6 129.399 144.792C129.271 144.984 128.439 145.88 127.479 146.84C124.151 150.168 119.735 155.864 119.735 160.856C119.735 162.136 120.439 163.416 122.551 163.416C128.247 163.416 138.679 152.536 142.391 148.632C143.287 147.736 143.671 148.056 142.775 148.952C139.127 152.728 128.375 164.248 122.423 164.248C119.223 164.248 118.519 161.816 118.519 159.768ZM132.791 136.856C132.535 136.6 132.535 136.536 132.535 136.152C132.535 135.256 133.111 133.784 134.135 133.784C134.711 133.784 135.223 134.168 135.287 134.744V134.872C135.287 135.64 134.199 137.112 133.431 137.176C133.239 137.112 132.983 137.048 132.791 136.856ZM166.567 148.76C166.759 148.632 166.887 148.568 167.015 148.568H167.079L167.143 148.696C167.143 149.144 162.983 152.28 162.407 152.728C156.519 157.144 149.799 160.408 143.143 163.288C142.695 163.48 142.375 163.608 142.311 163.672C142.311 163.736 142.183 164.184 142.055 164.76C141.095 169.048 139.303 172.568 136.871 175.128C134.695 177.368 132.071 178.776 130.087 178.776C128.103 178.776 127.015 177.432 127.015 175.384C127.015 171.608 129.831 169.368 132.839 167.512C134.055 166.808 136.935 165.4 138.983 164.44L140.199 163.928V163.48C140.327 162.584 140.391 159.576 140.455 156.632C140.519 151.96 140.647 150.296 141.031 148.632C141.799 145.688 144.679 141.464 148.071 141.464C148.775 141.464 149.223 141.72 149.223 142.296C149.223 143.064 148.263 144.088 144.999 146.84C144.359 147.352 143.783 147.864 143.719 147.928C143.591 148.12 143.335 149.464 143.207 150.36C143.079 151.192 143.015 152.28 142.887 157.4C142.823 159.512 142.695 160.92 142.503 162.392C142.439 162.648 142.439 162.84 142.439 162.904L142.375 162.968C142.375 162.968 142.631 162.84 142.887 162.712C151.847 158.68 158.887 154.968 166.567 148.76ZM148.071 142.744C146.983 142.936 144.167 146.008 144.167 146.776L144.103 146.712H144.167H143.975L144.103 146.648C144.167 146.584 144.679 146.136 145.191 145.688C145.703 145.24 147.879 143.448 148.007 142.68L148.071 142.744ZM140.071 164.696L140.135 164.568V164.632C139.879 164.632 135.143 166.872 133.607 167.768C130.791 169.368 127.655 171.864 127.655 175.384C127.655 176.216 127.847 176.92 128.231 177.304C128.743 177.752 129.319 178.008 130.023 178.008C135.719 178.008 139.303 169.368 140.071 164.696ZM219.994 149.528C220.698 148.696 221.082 148.376 221.21 148.376C221.338 148.376 221.402 148.44 221.402 148.568V148.632C221.402 148.824 220.186 150.232 219.162 151.32C215.514 155.032 209.626 159.64 204.122 159.64C199.194 159.64 196.569 155.608 194.586 151.64C192.922 148.312 192.346 147.48 191.642 147.48C190.298 147.48 187.482 151.256 186.778 152.216C186.586 152.536 186.202 153.112 185.946 153.368C185.498 153.944 184.154 155.928 183.642 156.76C183.322 157.272 182.362 158.488 181.722 158.488C181.53 158.488 181.338 158.36 181.274 158.296C181.146 158.104 181.018 157.848 181.018 157.656C181.018 156.632 183.13 153.688 183.706 152.856C184.986 151.128 187.994 146.712 188.634 145.496C189.466 144.024 189.85 142.872 189.914 141.976V141.848C189.85 141.336 189.722 140.888 189.466 140.568C188.89 139.992 187.93 139.672 186.65 139.672C184.474 139.672 181.274 140.568 177.498 142.36C176.474 142.808 174.298 143.96 174.17 144.088V144.024C174.234 144.088 174.234 144.152 174.298 144.28C174.618 144.728 174.746 145.304 174.746 146.008C174.746 148.76 172.378 153.304 168.922 156.824C167.385 158.296 166.106 159.128 165.146 159.128C163.93 159.128 163.546 158.104 163.546 157.016C163.546 154.072 168.986 142.552 172.058 142.552C172.506 142.552 172.954 142.744 173.146 143.128C173.274 143.256 173.402 143.384 173.658 143.512C173.786 143.512 174.106 143.384 175.258 142.744C180.186 140.312 184.218 139.096 186.97 139.096C189.082 139.096 191.002 139.864 191.002 142.36C191.002 143.832 190.17 146.2 189.466 147.48C189.338 147.672 189.274 147.8 189.274 147.864L189.21 147.736C189.146 147.736 189.146 147.672 189.21 147.608C189.466 147.288 190.362 146.584 190.874 146.328C191.13 146.2 191.514 146.072 191.77 146.072C192.09 146.072 192.474 146.2 192.729 146.328C194.01 147.032 194.97 149.144 195.482 150.488C197.21 154.328 199.514 158.744 204.378 158.808C210.074 158.808 216.282 153.624 219.994 149.528ZM165.274 158.104C168.666 158.104 173.786 149.464 173.85 146.392C173.85 145.368 173.53 144.408 173.338 144.344C173.274 144.408 173.274 144.472 173.21 144.536C173.146 144.664 172.634 145.24 172.058 145.816C169.754 147.992 164.698 153.944 164.698 157.4C164.698 157.528 164.698 157.72 164.762 157.848C164.826 157.976 165.018 158.104 165.274 158.104Z" fill="#3E3E3E"/>
<path d="M140.2 92.38C140.22 92.38 140.26 92.38 140.28 92.38C140.32 92.38 140.36 92.42 140.36 92.44C140.32 92.56 140.14 92.56 140.04 92.56C139.2 92.48 136.86 89.5 136.38 88.72C136.3 88.58 136.22 88.48 136.22 88.48C136.22 88.48 136.12 88.54 135.98 88.6C134.06 89.62 131.7 90.26 129.52 90.06C127.68 89.9 125.14 88.96 125.34 86.68C125.62 83.48 131.14 79.82 133.68 78.2C133.98 78.02 134 78 134.02 77.92C134.54 75.42 135.88 73.18 138.18 71.92C139.08 71.46 140.2 71 141.22 71.1C141.86 71.16 142.46 71.48 142.38 72.22C142.36 72.46 142.26 72.74 142.06 73.06C141.64 73.7 140.84 74.4 139.34 75.42C138.78 75.78 138.1 76.22 136.06 77.48C134.98 78.14 134.1 78.7 134.08 78.72C134.08 78.72 134.08 78.8 134.06 78.92C133.84 81.5 134.5 84.3 135.5 86.66C135.84 87.42 136.22 88.22 136.24 88.2C136.26 88.18 136.42 88.1 136.56 88C138.9 86.54 141.58 83.86 141.84 80.94C141.98 79.38 141.16 78.22 139.48 78.06C139.08 78.02 138.94 78.02 138.68 78.14C138.6 78.18 138.54 78.18 138.5 78.18C138.46 78.18 138.44 78.16 138.44 78.1L138.46 78.06C138.6 77.8 139.34 77.78 139.6 77.8C141.4 77.96 142.26 79.36 142.12 81.08C141.84 84.02 139.1 86.72 136.74 88.16C136.56 88.28 136.38 88.4 136.38 88.4C136.38 88.44 136.74 88.98 137.08 89.46C137.46 90 139.38 92.32 140.08 92.38C140.12 92.38 140.16 92.38 140.2 92.38ZM135.7 74.42C135.08 75.28 134.3 76.84 134.2 77.92L134.18 77.9C134.18 77.9 134.34 77.78 134.56 77.64L134.88 77.44C135.04 77.34 135.22 77.22 135.34 77.16C136.6 76.36 139.24 74.66 139.7 74.34C140.64 73.7 141.2 73.26 141.52 72.84C141.74 72.56 141.86 72.32 141.88 72.1C141.92 71.58 141.36 71.46 140.96 71.42C139.02 71.24 136.78 72.94 135.7 74.42ZM134.76 88.92C135.4 88.66 136.1 88.32 136.1 88.28C136.08 88.24 136.02 88.14 135.96 88C134.56 85.46 133.72 81.9 133.88 79.26C133.88 79.02 133.9 78.82 133.9 78.82C133.84 78.84 132.56 79.68 131.62 80.34C129.9 81.56 125.94 84.42 125.72 86.74C125.54 88.7 127.62 89.6 129.28 89.74C131.2 89.92 132.98 89.64 134.76 88.92Z" fill="#3E3E3E"/>
</svg>
